<svg xmlns="http://www.w3.org/2000/svg" width="900" height="463" viewBox="0 0 900 463" role="img" aria-labelledby="title desc">
<title id="title">Variação em 7 dias: Investimentos EA FC: Americanos em 20/07 — Console (PS)</title>
<desc id="desc">Gráfico gerado a partir da tabela publicada neste artigo.</desc>
<rect width="100%" height="100%" rx="20" fill="#0f172a"/>
<text x="28" y="42" fill="#f8fafc" font-family="system-ui,sans-serif" font-size="23" font-weight="700">Variação em 7 dias</text>
<text x="28" y="70" fill="#94a3b8" font-family="system-ui,sans-serif" font-size="15">Dados do recorte publicado no artigo</text>
<text x="28" y="117" fill="#e2e8f0" font-family="system-ui,sans-serif" font-size="16">Trinity Rodman</text>
<rect x="285" y="95" width="480" height="28" rx="7" fill="#22c55e"/>
<text x="775" y="116" fill="#f8fafc" font-family="system-ui,sans-serif" font-size="15" font-weight="700">+50.0%</text>
<text x="28" y="175" fill="#e2e8f0" font-family="system-ui,sans-serif" font-size="16">Timothy Weah</text>
<rect x="285" y="153" width="392" height="28" rx="7" fill="#22c55e"/>
<text x="687" y="174" fill="#f8fafc" font-family="system-ui,sans-serif" font-size="15" font-weight="700">+40.8%</text>
<text x="28" y="233" fill="#e2e8f0" font-family="system-ui,sans-serif" font-size="16">Trinity Rodman</text>
<rect x="285" y="211" width="296" height="28" rx="7" fill="#22c55e"/>
<text x="591" y="232" fill="#f8fafc" font-family="system-ui,sans-serif" font-size="15" font-weight="700">+30.8%</text>
<text x="28" y="291" fill="#e2e8f0" font-family="system-ui,sans-serif" font-size="16">Rose Lavelle</text>
<rect x="285" y="269" width="169" height="28" rx="7" fill="#22c55e"/>
<text x="464" y="290" fill="#f8fafc" font-family="system-ui,sans-serif" font-size="15" font-weight="700">+17.6%</text>
<text x="28" y="349" fill="#e2e8f0" font-family="system-ui,sans-serif" font-size="16">Julie Foudy</text>
<rect x="285" y="327" width="156" height="28" rx="7" fill="#22c55e"/>
<text x="451" y="348" fill="#f8fafc" font-family="system-ui,sans-serif" font-size="15" font-weight="700">+16.2%</text>
<text x="28" y="407" fill="#e2e8f0" font-family="system-ui,sans-serif" font-size="16">Mary Alice Vignola</text>
<rect x="285" y="385" width="83" height="28" rx="7" fill="#22c55e"/>
<text x="378" y="406" fill="#f8fafc" font-family="system-ui,sans-serif" font-size="15" font-weight="700">+8.6%</text>
</svg>
