<svg xmlns="http://www.w3.org/2000/svg" width="900" height="463" viewBox="0 0 900 463" role="img" aria-labelledby="title desc">
<title id="title">Variação em 7 dias: Investimentos EA FC: Americanos em 17/07 — Console (PS)</title>
<desc id="desc">Gráfico gerado a partir da tabela publicada neste artigo.</desc>
<rect width="100%" height="100%" rx="20" fill="#0f172a"/>
<text x="28" y="42" fill="#f8fafc" font-family="system-ui,sans-serif" font-size="23" font-weight="700">Variação em 7 dias</text>
<text x="28" y="70" fill="#94a3b8" font-family="system-ui,sans-serif" font-size="15">Dados do recorte publicado no artigo</text>
<text x="28" y="117" fill="#e2e8f0" font-family="system-ui,sans-serif" font-size="16">Ashley Sanchez</text>
<rect x="285" y="95" width="480" height="28" rx="7" fill="#22c55e"/>
<text x="775" y="116" fill="#f8fafc" font-family="system-ui,sans-serif" font-size="15" font-weight="700">+77.1%</text>
<text x="28" y="175" fill="#e2e8f0" font-family="system-ui,sans-serif" font-size="16">Crystal Dunn</text>
<rect x="285" y="153" width="309" height="28" rx="7" fill="#22c55e"/>
<text x="604" y="174" fill="#f8fafc" font-family="system-ui,sans-serif" font-size="15" font-weight="700">+49.6%</text>
<text x="28" y="233" fill="#e2e8f0" font-family="system-ui,sans-serif" font-size="16">Riley Tiernan</text>
<rect x="285" y="211" width="242" height="28" rx="7" fill="#22c55e"/>
<text x="537" y="232" fill="#f8fafc" font-family="system-ui,sans-serif" font-size="15" font-weight="700">+38.9%</text>
<text x="28" y="291" fill="#e2e8f0" font-family="system-ui,sans-serif" font-size="16">Diego Luna</text>
<rect x="285" y="269" width="190" height="28" rx="7" fill="#22c55e"/>
<text x="485" y="290" fill="#f8fafc" font-family="system-ui,sans-serif" font-size="15" font-weight="700">+30.5%</text>
<text x="28" y="349" fill="#e2e8f0" font-family="system-ui,sans-serif" font-size="16">Sergiño Dest</text>
<rect x="285" y="327" width="176" height="28" rx="7" fill="#22c55e"/>
<text x="471" y="348" fill="#f8fafc" font-family="system-ui,sans-serif" font-size="15" font-weight="700">+28.3%</text>
<text x="28" y="407" fill="#e2e8f0" font-family="system-ui,sans-serif" font-size="16">Julie Foudy</text>
<rect x="285" y="385" width="153" height="28" rx="7" fill="#22c55e"/>
<text x="448" y="406" fill="#f8fafc" font-family="system-ui,sans-serif" font-size="15" font-weight="700">+24.5%</text>
</svg>
