<svg xmlns="http://www.w3.org/2000/svg" width="900" height="463" viewBox="0 0 900 463" role="img" aria-labelledby="title desc">
<title id="title">Variação em 7 dias: Investimentos EA FC: Americanos em 20/07 — PC</title>
<desc id="desc">Gráfico gerado a partir da tabela publicada neste artigo.</desc>
<rect width="100%" height="100%" rx="20" fill="#0f172a"/>
<text x="28" y="42" fill="#f8fafc" font-family="system-ui,sans-serif" font-size="23" font-weight="700">Variação em 7 dias</text>
<text x="28" y="70" fill="#94a3b8" font-family="system-ui,sans-serif" font-size="15">Dados do recorte publicado no artigo</text>
<text x="28" y="117" fill="#e2e8f0" font-family="system-ui,sans-serif" font-size="16">Lindsey Heaps</text>
<rect x="285" y="95" width="480" height="28" rx="7" fill="#22c55e"/>
<text x="775" y="116" fill="#f8fafc" font-family="system-ui,sans-serif" font-size="15" font-weight="700">+62.5%</text>
<text x="28" y="175" fill="#e2e8f0" font-family="system-ui,sans-serif" font-size="16">Weston McKennie</text>
<rect x="285" y="153" width="309" height="28" rx="7" fill="#22c55e"/>
<text x="604" y="174" fill="#f8fafc" font-family="system-ui,sans-serif" font-size="15" font-weight="700">+40.2%</text>
<text x="28" y="233" fill="#e2e8f0" font-family="system-ui,sans-serif" font-size="16">Mary Alice Vignola</text>
<rect x="285" y="211" width="307" height="28" rx="7" fill="#22c55e"/>
<text x="602" y="232" fill="#f8fafc" font-family="system-ui,sans-serif" font-size="15" font-weight="700">+40.0%</text>
<text x="28" y="291" fill="#e2e8f0" font-family="system-ui,sans-serif" font-size="16">Rose Lavelle</text>
<rect x="285" y="269" width="167" height="28" rx="7" fill="#22c55e"/>
<text x="462" y="290" fill="#f8fafc" font-family="system-ui,sans-serif" font-size="15" font-weight="700">+21.8%</text>
<text x="28" y="349" fill="#e2e8f0" font-family="system-ui,sans-serif" font-size="16">Clint Dempsey</text>
<rect x="285" y="327" width="149" height="28" rx="7" fill="#22c55e"/>
<text x="444" y="348" fill="#f8fafc" font-family="system-ui,sans-serif" font-size="15" font-weight="700">+19.4%</text>
<text x="28" y="407" fill="#e2e8f0" font-family="system-ui,sans-serif" font-size="16">Alex Pfeiffer</text>
<rect x="285" y="385" width="80" height="28" rx="7" fill="#22c55e"/>
<text x="375" y="406" fill="#f8fafc" font-family="system-ui,sans-serif" font-size="15" font-weight="700">+10.4%</text>
</svg>
