<svg xmlns="http://www.w3.org/2000/svg" width="900" height="463" viewBox="0 0 900 463" role="img" aria-labelledby="title desc">
<title id="title">Variação em 24h: Americanos no EA FC em 31/05: altas e baixas — PC</title>
<desc id="desc">Gráfico gerado a partir da tabela publicada neste artigo.</desc>
<rect width="100%" height="100%" rx="20" fill="#0f172a"/>
<text x="28" y="42" fill="#f8fafc" font-family="system-ui,sans-serif" font-size="23" font-weight="700">Variação em 24h</text>
<text x="28" y="70" fill="#94a3b8" font-family="system-ui,sans-serif" font-size="15">Dados do recorte publicado no artigo</text>
<text x="28" y="117" fill="#e2e8f0" font-family="system-ui,sans-serif" font-size="16">Timothy Weah</text>
<rect x="285" y="95" width="480" height="28" rx="7" fill="#22c55e"/>
<text x="775" y="116" fill="#f8fafc" font-family="system-ui,sans-serif" font-size="15" font-weight="700">+54.6%</text>
<text x="28" y="175" fill="#e2e8f0" font-family="system-ui,sans-serif" font-size="16">Rose Lavelle</text>
<rect x="285" y="153" width="425" height="28" rx="7" fill="#22c55e"/>
<text x="720" y="174" fill="#f8fafc" font-family="system-ui,sans-serif" font-size="15" font-weight="700">+48.4%</text>
<text x="28" y="233" fill="#e2e8f0" font-family="system-ui,sans-serif" font-size="16">Michelle Cooper</text>
<rect x="285" y="211" width="240" height="28" rx="7" fill="#22c55e"/>
<text x="535" y="232" fill="#f8fafc" font-family="system-ui,sans-serif" font-size="15" font-weight="700">+27.3%</text>
<text x="28" y="291" fill="#e2e8f0" font-family="system-ui,sans-serif" font-size="16">Mia Hamm</text>
<rect x="285" y="269" width="200" height="28" rx="7" fill="#22c55e"/>
<text x="495" y="290" fill="#f8fafc" font-family="system-ui,sans-serif" font-size="15" font-weight="700">+22.8%</text>
<text x="28" y="349" fill="#e2e8f0" font-family="system-ui,sans-serif" font-size="16">Brad Guzan</text>
<rect x="285" y="327" width="178" height="28" rx="7" fill="#22c55e"/>
<text x="473" y="348" fill="#f8fafc" font-family="system-ui,sans-serif" font-size="15" font-weight="700">+20.3%</text>
<text x="28" y="407" fill="#e2e8f0" font-family="system-ui,sans-serif" font-size="16">Lilly Reale</text>
<rect x="285" y="385" width="154" height="28" rx="7" fill="#22c55e"/>
<text x="449" y="406" fill="#f8fafc" font-family="system-ui,sans-serif" font-size="15" font-weight="700">+17.5%</text>
</svg>
