<svg xmlns="http://www.w3.org/2000/svg" width="900" height="463" viewBox="0 0 900 463" role="img" aria-labelledby="title desc">
<title id="title">Variação em 24h: Mercado EA FC em 02/08: Americanos — Console (PS)</title>
<desc id="desc">Gráfico gerado a partir da tabela publicada neste artigo.</desc>
<rect width="100%" height="100%" rx="20" fill="#0f172a"/>
<text x="28" y="42" fill="#f8fafc" font-family="system-ui,sans-serif" font-size="23" font-weight="700">Variação em 24h</text>
<text x="28" y="70" fill="#94a3b8" font-family="system-ui,sans-serif" font-size="15">Dados do recorte publicado no artigo</text>
<text x="28" y="117" fill="#e2e8f0" font-family="system-ui,sans-serif" font-size="16">DeAndre Yedlin</text>
<rect x="285" y="95" width="480" height="28" rx="7" fill="#22c55e"/>
<text x="775" y="116" fill="#f8fafc" font-family="system-ui,sans-serif" font-size="15" font-weight="700">+43.9%</text>
<text x="28" y="175" fill="#e2e8f0" font-family="system-ui,sans-serif" font-size="16">Trinity Rodman</text>
<rect x="285" y="153" width="355" height="28" rx="7" fill="#22c55e"/>
<text x="650" y="174" fill="#f8fafc" font-family="system-ui,sans-serif" font-size="15" font-weight="700">+32.5%</text>
<text x="28" y="233" fill="#e2e8f0" font-family="system-ui,sans-serif" font-size="16">Tim Ream</text>
<rect x="285" y="211" width="348" height="28" rx="7" fill="#22c55e"/>
<text x="643" y="232" fill="#f8fafc" font-family="system-ui,sans-serif" font-size="15" font-weight="700">+31.8%</text>
<text x="28" y="291" fill="#e2e8f0" font-family="system-ui,sans-serif" font-size="16">Jaelin Howell</text>
<rect x="285" y="269" width="327" height="28" rx="7" fill="#22c55e"/>
<text x="622" y="290" fill="#f8fafc" font-family="system-ui,sans-serif" font-size="15" font-weight="700">+29.9%</text>
<text x="28" y="349" fill="#e2e8f0" font-family="system-ui,sans-serif" font-size="16">Riley Tiernan</text>
<rect x="285" y="327" width="246" height="28" rx="7" fill="#22c55e"/>
<text x="541" y="348" fill="#f8fafc" font-family="system-ui,sans-serif" font-size="15" font-weight="700">+22.5%</text>
<text x="28" y="407" fill="#e2e8f0" font-family="system-ui,sans-serif" font-size="16">Malik Tillman</text>
<rect x="285" y="385" width="218" height="28" rx="7" fill="#22c55e"/>
<text x="513" y="406" fill="#f8fafc" font-family="system-ui,sans-serif" font-size="15" font-weight="700">+19.9%</text>
</svg>
